<?xml version="1.0" standalone="no"?><!DOCTYPE svg PUBLIC "-//W3C//DTD SVG 1.1//EN" "http://www.w3.org/Graphics/SVG/1.1/DTD/svg11.dtd"><svg class="icon" height="512" viewBox="0 0 1024 1024" version="1.1" xmlns="http://www.w3.org/2000/svg"><path d="M512.001023 187.775664c0 0-233.313813 304.95241-233.313813 426.815899 0 121.889071 104.431467 220.698494 233.313813 220.698494 128.853693 0 233.310743-98.809423 233.310743-220.698494C745.31279 492.728074 512.001023 187.775664 512.001023 187.775664L512.001023 187.775664zM667.50775 650.488121c-1.373277 7.90197-2.849908 16.655332-6.26775 25.436322-1.345648 4.557806-3.340071 8.963139-5.622044 13.415544-2.148943 4.532223-4.452405 9.145287-7.43125 13.467733-5.517667 8.91095-12.458753 17.457604-20.384259 25.436322-7.951089 8.003278-17.145495 14.97097-26.78197 21.393239l-15.22782 8.468882c-5.285377 2.436492-10.698666 4.532223-16.006556 6.681166-10.905374 3.78214-21.965268 6.477528-32.81743 7.876388-10.853186 1.24127-21.366633 1.836835-31.234375 0.827855-2.461051-0.234337-4.871961-0.414439-7.253194-0.648776l-4.377704-0.361227-3.108804-0.647753c-4.091178-0.932232-8.052396-1.836835-11.834536-2.719948-8.080026-2.356674-16.034185-5.101181-22.042016-7.975649-6.061043-3.004427-11.161201-5.699816-15.048741-8.420787-7.795547-5.566786-11.655458-9.114588-11.655458-9.114588s5.752004-0.234337 14.765285 0.050142c4.507664 0.182149 10.152221-0.543376 16.110933-0.438998 6.137791-0.286526 12.223393-1.24434 19.346627-1.839905 3.859911-0.518816 7.900947-1.034563 12.069897-1.605567l3.158946-0.361227c-0.803295-0.234337 1.397836-0.442068 1.945305-0.648776l5.773494-1.24434c7.743358-1.345648 15.568581-3.90903 23.466458-6.26775 3.859911-1.581008 7.925507-2.64013 11.813047-4.195555 3.832282-1.760087 7.743358-3.418866 11.7056-4.946662 3.78214-1.969864 7.487531-4.041036 11.396561-5.777587l11.035334-6.52767c7.224542-4.581342 14.116509-9.608845 20.692275-14.866592 6.373151-5.436826 12.616342-10.980076 18.158568-16.861016 3.082198-2.77009 5.335519-6.008854 8.055466-8.93551 2.744507-2.899026 5.075599-5.980201 7.302313-9.090029 4.868891-5.931083 8.54563-12.146645 12.458753-17.871019 3.211135-5.931083 7.017834-11.57871 9.401114-16.629749 2.148943-5.15337 5.180999-9.556657 6.632047-13.82896 3.263323-8.339946 5.721305-13.054317 5.721305-13.054317s1.917676 4.922103 4.276397 13.519921c1.293459 4.196579 1.812275 9.893324 2.356674 16.419971C668.64669 635.260302 668.205645 642.408095 667.50775 650.488121L667.50775 650.488121zM667.50775 650.488121" /></svg>